<?xml version="1.0" encoding="UTF-8" standalone="no"?>
<svg
   xmlns:dc="http://purl.org/dc/elements/1.1/"
   xmlns:cc="http://creativecommons.org/ns#"
   xmlns:rdf="http://www.w3.org/1999/02/22-rdf-syntax-ns#"
   xmlns:svg="http://www.w3.org/2000/svg"
   xmlns="http://www.w3.org/2000/svg"
   xmlns:sodipodi="http://sodipodi.sourceforge.net/DTD/sodipodi-0.dtd"
   xmlns:inkscape="http://www.inkscape.org/namespaces/inkscape"
   class="svg-icon"
   style="overflow:hidden;fill:currentColor"
   viewBox="0 0 102.38857 153.5999"
   version="1.1"
   id="svg4"
   sodipodi:docname="boil.svg"
   width="102.38857"
   height="153.5999"
   inkscape:version="1.0.1 (3bc2e813f5, 2020-09-07)">
  <metadata
     id="metadata10">
    <rdf:RDF>
      <cc:Work
         rdf:about="">
        <dc:format>image/svg+xml</dc:format>
        <dc:type
           rdf:resource="http://purl.org/dc/dcmitype/StillImage" />
      </cc:Work>
    </rdf:RDF>
  </metadata>
  <defs
     id="defs8" />
  <sodipodi:namedview
     pagecolor="#ffffff"
     bordercolor="#666666"
     borderopacity="1"
     objecttolerance="10"
     gridtolerance="10"
     guidetolerance="10"
     inkscape:pageopacity="0"
     inkscape:pageshadow="2"
     inkscape:window-width="1257"
     inkscape:window-height="966"
     id="namedview6"
     showgrid="false"
     inkscape:zoom="4.0492912"
     inkscape:cx="41.17657"
     inkscape:cy="53.808397"
     inkscape:window-x="1076"
     inkscape:window-y="164"
     inkscape:window-maximized="0"
     inkscape:current-layer="svg4" />
  <path
     d="m 67.319077,115.2 a 3.1584,3.1584 0 0 0 -2.784,1.42401 l -3.59679,5.39199 -6.9984,-11.664 c -1.15521,-1.9296 -4.33281,-1.9296 -5.48802,0 l -6.9984,11.664 -3.59679,-5.39199 a 3.2000001,3.2000001 0 0 0 -5.4528,0.2079 c -1.67361,2.97921 -10.00959,18.12801 -10.00959,23.96799 0,7.05921 5.7408,12.8 12.79998,12.8 h 32.00001 c 7.05921,0 12.80001,-5.7408 12.80001,-12.8 0,-5.83998 -8.33922,-20.98878 -10.00641,-23.96799 a 3.2000001,3.2000001 0 0 0 -2.6688,-1.632 z m -0.1248,32.00001 h -32.00001 c -3.52959,0 -6.39999,-2.8704 -6.39999,-6.40002 0,-2.23359 3.14241,-9.37599 6.68799,-16.19838 l 3.44961,5.1744 a 3.0528,3.0528 0 0 0 2.73921,1.42398 3.1968,3.1968 0 0 0 2.66559,-1.55199 l 6.85761,-11.42721 6.85758,11.42721 c 0.56322,0.9408 1.56801,1.5264 2.66562,1.55199 a 3.0687999,3.0687999 0 0 0 2.73918,-1.42398 l 3.44961,-5.1744 c 3.54561,6.82239 6.68799,13.96479 6.68799,16.19838 0,3.52962 -2.8704,6.40002 -6.39999,6.40002 z m 32.00001,-115.2 h -9.6 V 19.2 h 3.19998 a 3.2000001,3.2000001 0 0 0 0,-6.39999 H 66.871087 C 65.383087,5.50719 58.922287,0 51.194287,0 c -7.728,0 -14.1888,5.50719 -15.6768,12.80001 H 9.5942765 a 3.2000001,3.2000001 0 0 0 0,6.39999 h 3.2000105 v 12.80001 h -9.6 a 3.2000001,3.2000001 0 0 0 0,6.39999 h 9.6 v 48 c 0,8.8224 7.17759,15.99999 15.99999,15.99999 h 44.79999 c 8.8224,0 16.00002,-7.17759 16.00002,-15.99999 v -48 h 9.6 a 3.2000001,3.2000001 0 0 0 0,-6.39999 z m -48,-25.60002 c 4.1664,0 7.68318,2.68482 9.01119,6.40002 h -18.0192 a 9.5839998,9.5839998 0 0 1 9.00801,-6.40002 z M 83.194267,86.4 c 0,5.29281 -4.30719,9.6 -9.6,9.6 h -44.79999 c -5.29281,0 -9.6,-4.30719 -9.6,-9.6 V 19.2 h 63.99999 z"
     fill="#010101"
     id="path2"
     style="stroke-width:0.15" />
</svg>
