<?xml version="1.0" encoding="UTF-8" standalone="no"?>
<svg
   xmlns:dc="http://purl.org/dc/elements/1.1/"
   xmlns:cc="http://creativecommons.org/ns#"
   xmlns:rdf="http://www.w3.org/1999/02/22-rdf-syntax-ns#"
   xmlns:svg="http://www.w3.org/2000/svg"
   xmlns="http://www.w3.org/2000/svg"
   xmlns:sodipodi="http://sodipodi.sourceforge.net/DTD/sodipodi-0.dtd"
   xmlns:inkscape="http://www.inkscape.org/namespaces/inkscape"
   width="67.245834mm"
   height="50.073273mm"
   viewBox="0 0 67.245834 50.073273"
   version="1.1"
   id="svg2417"
   inkscape:version="1.0.1 (3bc2e813f5, 2020-09-07)"
   sodipodi:docname="prob_totprob2.svg">
  <defs
     id="defs2411">
    <inkscape:path-effect
       effect="bspline"
       id="path-effect3318"
       is_visible="true"
       lpeversion="1"
       weight="33.333333"
       steps="2"
       helper_size="0"
       apply_no_weight="true"
       apply_with_weight="true"
       only_selected="false" />
    <inkscape:path-effect
       effect="bspline"
       id="path-effect3314"
       is_visible="true"
       lpeversion="1"
       weight="33.333333"
       steps="2"
       helper_size="0"
       apply_no_weight="true"
       apply_with_weight="true"
       only_selected="false" />
    <inkscape:path-effect
       effect="bspline"
       id="path-effect3310"
       is_visible="true"
       lpeversion="1"
       weight="33.333333"
       steps="2"
       helper_size="0"
       apply_no_weight="true"
       apply_with_weight="true"
       only_selected="false" />
  </defs>
  <sodipodi:namedview
     id="base"
     pagecolor="#ffffff"
     bordercolor="#666666"
     borderopacity="1.0"
     inkscape:pageopacity="0.0"
     inkscape:pageshadow="2"
     inkscape:zoom="2.8"
     inkscape:cx="115.85994"
     inkscape:cy="81.470031"
     inkscape:document-units="mm"
     inkscape:current-layer="layer1"
     inkscape:document-rotation="0"
     showgrid="true"
     inkscape:window-width="1770"
     inkscape:window-height="968"
     inkscape:window-x="723"
     inkscape:window-y="374"
     inkscape:window-maximized="0">
    <inkscape:grid
       type="xygrid"
       id="grid2980"
       originx="-27.231249"
       originy="-3.4187501" />
  </sodipodi:namedview>
  <metadata
     id="metadata2414">
    <rdf:RDF>
      <cc:Work
         rdf:about="">
        <dc:format>image/svg+xml</dc:format>
        <dc:type
           rdf:resource="http://purl.org/dc/dcmitype/StillImage" />
        <dc:title></dc:title>
      </cc:Work>
    </rdf:RDF>
  </metadata>
  <g
     inkscape:label="Слой 1"
     inkscape:groupmode="layer"
     id="layer1"
     transform="translate(-27.231249,-3.41875)">
    <path
       style="fill:none;fill-rule:evenodd;stroke:#000000;stroke-width:1.1;stroke-linecap:round;stroke-linejoin:miter;stroke-miterlimit:4;stroke-dasharray:none;stroke-opacity:1"
       d="m 27.78125,3.96875 c 0,16.316323 0,32.632293 0,48.947916"
       id="path3308"
       inkscape:path-effect="#path-effect3310"
       inkscape:original-d="m 27.78125,3.96875 c 2.64e-4,16.316323 2.64e-4,32.632293 0,48.947916" />
    <path
       style="fill:none;fill-rule:evenodd;stroke:#000000;stroke-width:1.1;stroke-linecap:round;stroke-linejoin:miter;stroke-miterlimit:4;stroke-dasharray:none;stroke-opacity:1"
       d="m 93.927083,52.942021 c -22.049085,0 -44.097695,0 -66.145834,0"
       id="path3312"
       inkscape:path-effect="#path-effect3314"
       inkscape:original-d="m 93.927083,52.942021 c -22.049085,3.77e-4 -44.097695,3.77e-4 -66.145834,0" />
    <path
       style="fill:none;fill-rule:evenodd;stroke:#000000;stroke-width:1.1;stroke-linecap:round;stroke-linejoin:miter;stroke-miterlimit:4;stroke-dasharray:none;stroke-opacity:1"
       d="m 93.927083,3.96875 c 0,16.316323 0,32.632294 0,48.947917"
       id="path3316"
       inkscape:path-effect="#path-effect3318"
       inkscape:original-d="m 93.927083,3.96875 c 2.6e-4,16.316323 2.6e-4,32.632294 0,48.947917" />
    <path
       d="m 30.427083,43.647365 v 6.633989 h 9.955075 9.955068 v -6.633989 -6.633988 h -9.955068 -9.955075 z m 18.249603,-5.719463 c -0.02779,0.02618 -1.636002,1.483853 -3.574665,3.242556 -1.938664,1.757067 -3.573032,3.239285 -3.631921,3.291637 -0.274855,0.251946 -0.597143,0.449901 -0.834363,0.513705 -0.157055,0.04091 -0.386096,0.03599 -0.539881,-0.0099 -0.235586,-0.07199 -0.490799,-0.225773 -0.744384,-0.449904 -0.194683,-0.170144 -7.16078,-6.488385 -7.239311,-6.563641 l -0.07362,-0.07198 h 8.343618 8.34361 z m -14.349372,3.198384 2.776295,2.519444 -0.05401,0.05235 c -0.02941,0.02782 -1.28263,1.164833 -2.786116,2.525986 -1.503485,1.361156 -2.763205,2.50472 -2.800833,2.542348 l -0.07035,0.06544 v -5.182847 -5.182856 l 0.07853,0.07198 c 0.0442,0.03763 1.328431,1.204098 2.856453,2.588155 z m 15.041397,5.104328 -0.0049,2.594698 -2.797557,-2.53744 c -1.537852,-1.393873 -2.822109,-2.560342 -2.853192,-2.58979 l -0.05401,-0.05563 2.85155,-2.586519 2.853185,-2.588155 0.0049,2.584883 c 0.0014,1.421686 0.0014,3.751353 0,5.177947 z M 38.132654,44.579887 c 0.346833,0.312475 0.674033,0.593868 0.850722,0.729655 0.875259,0.678943 1.418409,0.793464 2.116987,0.443359 0.377916,-0.188141 0.798363,-0.515341 1.603278,-1.244999 l 0.31084,-0.279755 0.06545,0.06381 c 0.03759,0.03436 1.056858,0.960334 2.267497,2.056455 1.210644,1.097757 2.46382,2.233142 2.786115,2.525987 l 0.587324,0.531701 -4.163623,0.0049 c -2.290408,0.0017 -6.043397,0.0017 -8.340342,0 l -4.176712,-0.0049 2.853185,-2.588155 2.854826,-2.589792 0.05728,0.05562 c 0.03105,0.02945 0.178324,0.163599 0.327199,0.296114 z"
       id="path3265"
       style="fill:#ff0000;stroke:#ff0000;stroke-width:0.00230221" />
    <path
       d="m 51.56278,43.647364 v 6.633989 h 9.955075 9.955068 V 43.647364 37.013376 H 61.517855 51.56278 Z m 18.249604,-5.719463 c -0.02779,0.02618 -1.636002,1.483853 -3.574665,3.242556 -1.938664,1.757067 -3.573032,3.239285 -3.631921,3.291637 -0.274856,0.251946 -0.597144,0.449901 -0.834363,0.513705 -0.157055,0.04091 -0.386096,0.03599 -0.539881,-0.0099 -0.235586,-0.07199 -0.490799,-0.225773 -0.744384,-0.449904 -0.194683,-0.170144 -7.16078,-6.488385 -7.239311,-6.563641 l -0.07362,-0.07198 h 8.343618 8.34361 z m -14.349373,3.198384 2.776296,2.519444 -0.05401,0.05235 c -0.02941,0.02782 -1.282629,1.164833 -2.786116,2.525986 -1.503484,1.361156 -2.763205,2.50472 -2.800832,2.542348 l -0.07035,0.06544 V 43.649006 38.46615 l 0.07853,0.07198 c 0.0442,0.03763 1.328431,1.204098 2.856453,2.588155 z m 15.041398,5.104328 -0.0049,2.594698 -2.797557,-2.53744 C 66.1641,44.893998 64.879843,43.727529 64.848759,43.698081 l -0.05401,-0.05563 2.85155,-2.586519 2.853185,-2.588155 0.0049,2.584883 c 0.0014,1.421686 0.0014,3.751353 0,5.177947 z M 59.268352,44.579886 c 0.346833,0.312475 0.674032,0.593868 0.850722,0.729655 0.875259,0.678943 1.418409,0.793464 2.116986,0.443359 0.377916,-0.188141 0.798363,-0.515341 1.603279,-1.244999 l 0.31084,-0.279755 0.06545,0.06381 c 0.03759,0.03436 1.056858,0.960334 2.267497,2.056455 1.210644,1.097757 2.46382,2.233142 2.786115,2.525987 l 0.587324,0.531701 -4.163623,0.0049 c -2.290409,0.0017 -6.043398,0.0017 -8.340343,0 l -4.176712,-0.0049 2.853185,-2.588155 2.854826,-2.589792 0.05728,0.05562 c 0.03105,0.02945 0.178325,0.163599 0.327199,0.296114 z"
       id="path3292"
       style="fill:#0000ff;stroke:#0000ff;stroke-width:0.00230221" />
    <path
       d="m 72.698474,43.647364 v 6.633989 h 9.955075 9.955068 v -6.633989 -6.633988 h -9.955068 -9.955075 z m 18.249603,-5.719463 c -0.02779,0.02618 -1.636002,1.483853 -3.574665,3.242556 -1.938664,1.757067 -3.573032,3.239285 -3.631921,3.291637 -0.274855,0.251946 -0.597143,0.449901 -0.834363,0.513705 -0.157055,0.04091 -0.386096,0.03599 -0.539881,-0.0099 -0.235586,-0.07199 -0.490799,-0.225773 -0.744384,-0.449904 -0.194683,-0.170144 -7.16078,-6.488385 -7.239311,-6.563641 l -0.07362,-0.07198 h 8.343618 8.34361 z m -14.349372,3.198384 2.776295,2.519444 -0.05401,0.05235 c -0.02941,0.02782 -1.28263,1.164833 -2.786116,2.525986 -1.503485,1.361156 -2.763205,2.50472 -2.800833,2.542348 l -0.07035,0.06544 V 43.649006 38.46615 l 0.07853,0.07198 c 0.0442,0.03763 1.328431,1.204098 2.856453,2.588155 z m 15.041397,5.104328 -0.0049,2.594698 -2.797557,-2.53744 c -1.537852,-1.393873 -2.822109,-2.560342 -2.853192,-2.58979 l -0.05401,-0.05563 2.85155,-2.586519 2.853185,-2.588155 0.0049,2.584883 c 0.0014,1.421686 0.0014,3.751353 0,5.177947 z M 80.404045,44.579886 c 0.346833,0.312475 0.674033,0.593868 0.850722,0.729655 0.875259,0.678943 1.418409,0.793464 2.116987,0.443359 0.377916,-0.188141 0.798363,-0.515341 1.603278,-1.244999 l 0.31084,-0.279755 0.06545,0.06381 c 0.03759,0.03436 1.056858,0.960334 2.267497,2.056455 1.210644,1.097757 2.46382,2.233142 2.786115,2.525987 l 0.587324,0.531701 -4.163623,0.0049 c -2.290408,0.0017 -6.043397,0.0017 -8.340342,0 l -4.176712,-0.0049 2.853185,-2.588155 2.854826,-2.589792 0.05728,0.05562 c 0.03105,0.02945 0.178324,0.163599 0.327199,0.296114 z"
       id="path3352"
       style="fill:#0000ff;stroke:#0000ff;stroke-width:0.00230221" />
    <path
       d="m 30.073131,29.217887 v 6.633989 h 9.955075 9.955068 v -6.633989 -6.633988 h -9.955068 -9.955075 z m 18.249603,-5.719463 c -0.02779,0.02618 -1.636002,1.483853 -3.574665,3.242556 -1.938664,1.757067 -3.573032,3.239285 -3.631921,3.291637 -0.274855,0.251946 -0.597143,0.449901 -0.834363,0.513705 -0.157055,0.04091 -0.386096,0.03599 -0.539881,-0.0099 -0.235586,-0.07199 -0.490799,-0.225773 -0.744384,-0.449904 -0.194683,-0.170144 -7.16078,-6.488385 -7.239311,-6.563641 l -0.07362,-0.07198 h 8.343618 8.34361 z m -14.349372,3.198384 2.776295,2.519444 -0.05401,0.05235 c -0.02941,0.02782 -1.28263,1.164833 -2.786116,2.525986 -1.503485,1.361156 -2.763205,2.50472 -2.800833,2.542348 l -0.07035,0.06544 v -5.182847 -5.182856 l 0.07853,0.07198 c 0.0442,0.03763 1.328431,1.204098 2.856453,2.588155 z m 15.041397,5.104328 -0.0049,2.594698 -2.797557,-2.53744 C 44.67445,30.464521 43.390193,29.298052 43.35911,29.268604 l -0.05401,-0.05563 2.85155,-2.586519 2.853185,-2.588155 0.0049,2.584883 c 0.0014,1.421686 0.0014,3.751353 0,5.177947 z M 37.778702,30.150409 c 0.346833,0.312475 0.674033,0.593868 0.850722,0.729655 0.875259,0.678943 1.418409,0.793464 2.116987,0.443359 0.377916,-0.188141 0.798363,-0.515341 1.603278,-1.244999 l 0.31084,-0.279755 0.06545,0.06381 c 0.03759,0.03436 1.056858,0.960334 2.267497,2.056455 1.210644,1.097757 2.46382,2.233142 2.786115,2.525987 l 0.587324,0.531701 -4.163623,0.0049 c -2.290408,0.0017 -6.043397,0.0017 -8.340342,0 l -4.176712,-0.0049 2.853185,-2.588155 2.854826,-2.589792 0.05728,0.05562 c 0.03105,0.02945 0.178324,0.163599 0.327199,0.296114 z"
       id="path3390"
       style="fill:#ff0000;stroke:#ff0000;stroke-width:0.00230221" />
    <path
       d="m 51.208828,29.217886 v 6.633989 h 9.955075 9.955068 v -6.633989 -6.633988 h -9.955068 -9.955075 z m 18.249604,-5.719463 c -0.02779,0.02618 -1.636003,1.483853 -3.574665,3.242556 -1.938664,1.757067 -3.573032,3.239285 -3.631921,3.291637 -0.274856,0.251946 -0.597144,0.449901 -0.834363,0.513705 -0.157055,0.04091 -0.386096,0.03599 -0.539881,-0.0099 -0.235586,-0.07199 -0.490799,-0.225773 -0.744384,-0.449904 -0.194683,-0.170144 -7.16078,-6.488385 -7.239311,-6.563641 l -0.07362,-0.07198 h 8.343618 8.34361 z m -14.349373,3.198384 2.776296,2.519444 -0.05401,0.05235 c -0.02941,0.02782 -1.282629,1.164833 -2.786116,2.525986 -1.503484,1.361156 -2.763205,2.50472 -2.800832,2.542348 l -0.07035,0.06544 v -5.182847 -5.182856 l 0.07853,0.07198 c 0.0442,0.03763 1.328431,1.204098 2.856453,2.588155 z m 15.041398,5.104328 -0.0049,2.594698 -2.797557,-2.53744 c -1.537852,-1.393873 -2.822108,-2.560342 -2.853192,-2.58979 l -0.05401,-0.05563 2.85155,-2.586519 2.853185,-2.588155 0.0049,2.584883 c 0.0014,1.421686 0.0014,3.751353 0,5.177947 z M 58.9144,30.150408 c 0.346833,0.312475 0.674032,0.593868 0.850722,0.729655 0.875259,0.678943 1.418409,0.793464 2.116986,0.443359 0.377916,-0.188141 0.798363,-0.515341 1.603279,-1.244999 l 0.31084,-0.279755 0.06545,0.06381 c 0.03759,0.03436 1.056858,0.960334 2.267497,2.056455 1.210644,1.097757 2.46382,2.233142 2.786115,2.525987 l 0.587323,0.531701 -4.163623,0.0049 c -2.290408,0.0017 -6.043397,0.0017 -8.340342,0 l -4.176712,-0.0049 2.853185,-2.588155 2.854826,-2.589792 0.05728,0.05562 c 0.03105,0.02945 0.178325,0.163599 0.327199,0.296114 z"
       id="path3398"
       style="fill:#0000ff;stroke:#0000ff;stroke-width:0.00230221" />
    <path
       d="m 72.344522,29.217886 v 6.633989 h 9.955075 9.955068 v -6.633989 -6.633988 h -9.955068 -9.955075 z m 18.249603,-5.719463 c -0.02779,0.02618 -1.636002,1.483853 -3.574665,3.242556 -1.938664,1.757067 -3.573032,3.239285 -3.631921,3.291637 -0.274855,0.251946 -0.597143,0.449901 -0.834363,0.513705 -0.157055,0.04091 -0.386096,0.03599 -0.539881,-0.0099 -0.235586,-0.07199 -0.490799,-0.225773 -0.744384,-0.449904 -0.194683,-0.170144 -7.16078,-6.488385 -7.239311,-6.563641 l -0.07362,-0.07198 h 8.343618 8.34361 z m -14.349372,3.198384 2.776295,2.519444 -0.05401,0.05235 c -0.02941,0.02782 -1.28263,1.164833 -2.786116,2.525986 -1.503485,1.361156 -2.763205,2.50472 -2.800833,2.542348 l -0.07035,0.06544 v -5.182847 -5.182856 l 0.07853,0.07198 c 0.0442,0.03763 1.328431,1.204098 2.856453,2.588155 z m 15.041397,5.104328 -0.0049,2.594698 -2.797557,-2.53744 c -1.537852,-1.393873 -2.822109,-2.560342 -2.853192,-2.58979 l -0.05401,-0.05563 2.85155,-2.586519 2.853185,-2.588155 0.0049,2.584883 c 0.0014,1.421686 0.0014,3.751353 0,5.177947 z M 80.050093,30.150408 c 0.346833,0.312475 0.674033,0.593868 0.850722,0.729655 0.875259,0.678943 1.418409,0.793464 2.116987,0.443359 0.377916,-0.188141 0.798363,-0.515341 1.603278,-1.244999 l 0.31084,-0.279755 0.06545,0.06381 c 0.03759,0.03436 1.056858,0.960334 2.267497,2.056455 1.210644,1.097757 2.46382,2.233142 2.786115,2.525987 l 0.587324,0.531701 -4.163623,0.0049 c -2.290408,0.0017 -6.043397,0.0017 -8.340342,0 l -4.176712,-0.0049 2.853185,-2.588155 2.854826,-2.589792 0.05728,0.05562 c 0.03105,0.02945 0.178324,0.163599 0.327199,0.296114 z"
       id="path3406"
       style="fill:#0000ff;stroke:#0000ff;stroke-width:0.00230221" />
    <path
       d="m 30.073155,14.440005 v 6.633989 h 9.955075 9.955068 V 14.440005 7.806017 H 40.02823 30.073155 Z M 48.322758,8.720542 c -0.02779,0.02618 -1.636002,1.483853 -3.574665,3.242556 -1.938664,1.757067 -3.573032,3.239285 -3.631921,3.291637 -0.274855,0.251946 -0.597143,0.449901 -0.834363,0.513705 -0.157055,0.04091 -0.386096,0.03599 -0.539881,-0.0099 -0.235586,-0.07199 -0.490799,-0.225773 -0.744384,-0.449904 -0.194683,-0.170144 -7.16078,-6.488385 -7.239311,-6.563641 l -0.07362,-0.07198 h 8.343618 8.34361 z m -14.349372,3.198384 2.776295,2.519444 -0.05401,0.05235 c -0.02941,0.02782 -1.28263,1.164833 -2.786116,2.525986 -1.503485,1.361156 -2.763205,2.50472 -2.800833,2.542348 l -0.07035,0.06544 V 14.441647 9.258791 l 0.07853,0.07198 c 0.0442,0.03763 1.328431,1.204098 2.856453,2.588155 z m 15.041397,5.104328 -0.0049,2.594698 -2.797557,-2.53744 c -1.537852,-1.393873 -2.822109,-2.560342 -2.853192,-2.58979 l -0.05401,-0.05563 2.85155,-2.586519 2.853185,-2.588155 0.0049,2.584883 c 0.0014,1.421686 0.0014,3.751353 0,5.177947 z M 37.778726,15.372527 c 0.346833,0.312475 0.674033,0.593868 0.850722,0.729655 0.875259,0.678943 1.418409,0.793464 2.116987,0.443359 0.377916,-0.188141 0.798363,-0.515341 1.603278,-1.244999 l 0.31084,-0.279755 0.06545,0.06381 c 0.03759,0.03436 1.056858,0.960334 2.267497,2.056455 1.210644,1.097757 2.46382,2.233142 2.786115,2.525987 l 0.587324,0.531701 -4.163623,0.0049 c -2.290408,0.0017 -6.043397,0.0017 -8.340342,0 l -4.176712,-0.0049 2.853185,-2.588155 2.854826,-2.589792 0.05728,0.05562 c 0.03105,0.02945 0.178324,0.163599 0.327199,0.296114 z"
       id="path3416"
       style="fill:#ff0000;stroke:#ff0000;stroke-width:0.00230221" />
    <path
       d="m 51.208852,14.440004 v 6.633989 h 9.955075 9.955068 V 14.440004 7.806016 H 61.163927 51.208852 Z M 69.458455,8.720541 c -0.02779,0.02618 -1.636002,1.483853 -3.574664,3.242556 -1.938664,1.757067 -3.573032,3.239285 -3.631921,3.291637 -0.274855,0.251946 -0.597143,0.449901 -0.834363,0.513705 -0.157055,0.04091 -0.386096,0.03599 -0.539881,-0.0099 -0.235586,-0.07199 -0.490799,-0.225773 -0.744384,-0.449904 -0.194683,-0.170144 -7.16078,-6.488385 -7.239311,-6.563641 l -0.07362,-0.07198 h 8.343618 8.34361 z m -14.349371,3.198384 2.776295,2.519444 -0.05401,0.05235 c -0.02941,0.02782 -1.28263,1.164833 -2.786116,2.525986 -1.503485,1.361156 -2.763205,2.50472 -2.800833,2.542348 l -0.07035,0.06544 V 14.441646 9.25879 l 0.07853,0.07198 c 0.0442,0.03763 1.328431,1.204098 2.856453,2.588155 z m 15.041396,5.104328 -0.0049,2.594698 -2.797557,-2.53744 c -1.537852,-1.393873 -2.822109,-2.560342 -2.853192,-2.58979 l -0.05401,-0.05563 2.85155,-2.586519 2.853185,-2.588155 0.0049,2.584883 c 0.0014,1.421686 0.0014,3.751353 0,5.177947 z M 58.914424,15.372526 c 0.346833,0.312475 0.674032,0.593868 0.850722,0.729655 0.875259,0.678943 1.418409,0.793464 2.116987,0.443359 0.377916,-0.188141 0.798362,-0.515341 1.603278,-1.244999 l 0.31084,-0.279755 0.06545,0.06381 c 0.03759,0.03436 1.056858,0.960334 2.267497,2.056455 1.210644,1.097757 2.46382,2.233142 2.786114,2.525987 l 0.587324,0.531701 -4.163623,0.0049 c -2.290408,0.0017 -6.043396,0.0017 -8.340342,0 l -4.176712,-0.0049 2.853185,-2.588155 2.854826,-2.589792 0.05728,0.05562 c 0.03105,0.02945 0.178324,0.163599 0.327198,0.296114 z"
       id="path3424"
       style="fill:#ff0000;stroke:#ff0000;stroke-width:0.00230221" />
    <path
       d="m 72.344546,14.440004 v 6.633989 h 9.955075 9.955068 V 14.440004 7.806016 H 82.299621 72.344546 Z M 90.594149,8.720541 c -0.02779,0.02618 -1.636002,1.483853 -3.574665,3.242556 -1.938664,1.757067 -3.573032,3.239285 -3.631921,3.291637 -0.274855,0.251946 -0.597143,0.449901 -0.834363,0.513705 -0.157055,0.04091 -0.386096,0.03599 -0.539881,-0.0099 -0.235586,-0.07199 -0.490799,-0.225773 -0.744384,-0.449904 -0.194683,-0.170144 -7.16078,-6.488385 -7.239311,-6.563641 l -0.07362,-0.07198 h 8.343618 8.34361 z m -14.349372,3.198384 2.776295,2.519444 -0.05401,0.05235 c -0.02941,0.02782 -1.28263,1.164833 -2.786116,2.525986 -1.503485,1.361156 -2.763205,2.50472 -2.800833,2.542348 l -0.07035,0.06544 V 14.441646 9.25879 l 0.07853,0.07198 c 0.0442,0.03763 1.328431,1.204098 2.856453,2.588155 z m 15.041397,5.104328 -0.0049,2.594698 -2.797557,-2.53744 c -1.537852,-1.393873 -2.822109,-2.560342 -2.853192,-2.58979 l -0.05401,-0.05563 2.85155,-2.586519 2.853185,-2.588155 0.0049,2.584883 c 0.0014,1.421686 0.0014,3.751353 0,5.177947 z M 80.050117,15.372526 c 0.346833,0.312475 0.674033,0.593868 0.850722,0.729655 0.875259,0.678943 1.418409,0.793464 2.116987,0.443359 0.377916,-0.188141 0.798363,-0.515341 1.603278,-1.244999 l 0.31084,-0.279755 0.06545,0.06381 c 0.03759,0.03436 1.056858,0.960334 2.267497,2.056455 1.210644,1.097757 2.46382,2.233142 2.786115,2.525987 l 0.587324,0.531701 -4.163623,0.0049 c -2.290408,0.0017 -6.043397,0.0017 -8.340342,0 l -4.176712,-0.0049 2.853185,-2.588155 2.854826,-2.589792 0.05728,0.05562 c 0.03105,0.02945 0.178324,0.163599 0.327199,0.296114 z"
       id="path3432"
       style="fill:#0000ff;stroke:#0000ff;stroke-width:0.00230221" />
  </g>
</svg>
