<?xml version="1.0" encoding="UTF-8" standalone="no"?>
<svg
   xmlns:dc="http://purl.org/dc/elements/1.1/"
   xmlns:cc="http://creativecommons.org/ns#"
   xmlns:rdf="http://www.w3.org/1999/02/22-rdf-syntax-ns#"
   xmlns:svg="http://www.w3.org/2000/svg"
   xmlns="http://www.w3.org/2000/svg"
   xmlns:sodipodi="http://sodipodi.sourceforge.net/DTD/sodipodi-0.dtd"
   xmlns:inkscape="http://www.inkscape.org/namespaces/inkscape"
   width="107.35701mm"
   height="42.810863mm"
   viewBox="0 0 107.35701 42.810863"
   version="1.1"
   id="svg843"
   inkscape:version="1.0.1 (3bc2e813f5, 2020-09-07)"
   sodipodi:docname="prob_totprob1.svg">
  <defs
     id="defs837">
    <inkscape:path-effect
       effect="bspline"
       id="path-effect1650"
       is_visible="true"
       lpeversion="1"
       weight="33.333333"
       steps="2"
       helper_size="0"
       apply_no_weight="true"
       apply_with_weight="true"
       only_selected="false" />
    <inkscape:path-effect
       effect="bspline"
       id="path-effect1501"
       is_visible="true"
       lpeversion="1"
       weight="33.333333"
       steps="2"
       helper_size="0"
       apply_no_weight="true"
       apply_with_weight="true"
       only_selected="false" />
    <inkscape:path-effect
       effect="bspline"
       id="path-effect1520"
       is_visible="true"
       lpeversion="1"
       weight="33.333333"
       steps="2"
       helper_size="0"
       apply_no_weight="true"
       apply_with_weight="true"
       only_selected="false" />
    <inkscape:path-effect
       effect="bspline"
       id="path-effect1539"
       is_visible="true"
       lpeversion="1"
       weight="33.333333"
       steps="2"
       helper_size="0"
       apply_no_weight="true"
       apply_with_weight="true"
       only_selected="false" />
    <inkscape:path-effect
       effect="bspline"
       id="path-effect2150"
       is_visible="true"
       lpeversion="1"
       weight="33.333333"
       steps="2"
       helper_size="0"
       apply_no_weight="true"
       apply_with_weight="true"
       only_selected="false" />
    <inkscape:path-effect
       effect="bspline"
       id="path-effect2152"
       is_visible="true"
       lpeversion="1"
       weight="33.333333"
       steps="2"
       helper_size="0"
       apply_no_weight="true"
       apply_with_weight="true"
       only_selected="false" />
    <inkscape:path-effect
       effect="bspline"
       id="path-effect2154"
       is_visible="true"
       lpeversion="1"
       weight="33.333333"
       steps="2"
       helper_size="0"
       apply_no_weight="true"
       apply_with_weight="true"
       only_selected="false" />
  </defs>
  <sodipodi:namedview
     id="base"
     pagecolor="#ffffff"
     bordercolor="#666666"
     borderopacity="1.0"
     inkscape:pageopacity="0.0"
     inkscape:pageshadow="2"
     inkscape:zoom="1.979899"
     inkscape:cx="284.56744"
     inkscape:cy="119.21533"
     inkscape:document-units="mm"
     inkscape:current-layer="layer1"
     inkscape:document-rotation="0"
     showgrid="true"
     inkscape:window-width="1770"
     inkscape:window-height="968"
     inkscape:window-x="673"
     inkscape:window-y="41"
     inkscape:window-maximized="0"
     inkscape:snap-bbox="true">
    <inkscape:grid
       type="xygrid"
       id="grid1697"
       originx="-15.808873"
       originy="-11.507219" />
  </sodipodi:namedview>
  <metadata
     id="metadata840">
    <rdf:RDF>
      <cc:Work
         rdf:about="">
        <dc:format>image/svg+xml</dc:format>
        <dc:type
           rdf:resource="http://purl.org/dc/dcmitype/StillImage" />
        <dc:title></dc:title>
      </cc:Work>
    </rdf:RDF>
  </metadata>
  <g
     inkscape:label="Слой 1"
     inkscape:groupmode="layer"
     id="layer1"
     transform="translate(-15.808873,-11.507219)">
    <g
       id="g8"
       transform="matrix(-0.08582603,0,0,-0.08582603,-8.770287,4.3816761)" />
    <g
       id="g10"
       transform="matrix(-0.08582603,0,0,-0.08582603,-8.770287,4.3816761)" />
    <g
       id="g12"
       transform="matrix(-0.08582603,0,0,-0.08582603,-8.770287,4.3816761)" />
    <g
       id="g14"
       transform="matrix(-0.08582603,0,0,-0.08582603,-8.770287,4.3816761)" />
    <g
       id="g16"
       transform="matrix(-0.08582603,0,0,-0.08582603,-8.770287,4.3816761)" />
    <g
       id="g18"
       transform="matrix(-0.08582603,0,0,-0.08582603,-8.770287,4.3816761)" />
    <g
       id="g20"
       transform="matrix(-0.08582603,0,0,-0.08582603,-8.770287,4.3816761)" />
    <g
       id="g22"
       transform="matrix(-0.08582603,0,0,-0.08582603,-8.770287,4.3816761)" />
    <g
       id="g24"
       transform="matrix(-0.08582603,0,0,-0.08582603,-8.770287,4.3816761)" />
    <g
       id="g26"
       transform="matrix(-0.08582603,0,0,-0.08582603,-8.770287,4.3816761)" />
    <g
       id="g28"
       transform="matrix(-0.08582603,0,0,-0.08582603,-8.770287,4.3816761)" />
    <g
       id="g30"
       transform="matrix(-0.08582603,0,0,-0.08582603,-8.770287,4.3816761)" />
    <g
       id="g32"
       transform="matrix(-0.08582603,0,0,-0.08582603,-8.770287,4.3816761)" />
    <g
       id="g34"
       transform="matrix(-0.08582603,0,0,-0.08582603,-8.770287,4.3816761)" />
    <g
       id="g36"
       transform="matrix(-0.08582603,0,0,-0.08582603,-8.770287,4.3816761)" />
    <g
       id="g2263">
      <path
         d="m 34.329434,44.812737 v 9.335461 H 48.338382 62.34733 V 44.812737 35.477275 H 48.338382 34.329434 Z m 25.681153,-8.048526 c -0.03914,0.03684 -2.30221,2.088104 -5.030329,4.56298 -2.728119,2.472573 -5.028027,4.558376 -5.110906,4.632046 -0.386772,0.354541 -0.840307,0.633108 -1.174127,0.722894 -0.221013,0.05756 -0.543322,0.05065 -0.75973,-0.01381 -0.331518,-0.1013 -0.690663,-0.317708 -1.047505,-0.633111 -0.273963,-0.23943 -10.076774,-9.130565 -10.18728,-9.236466 l -0.103599,-0.101297 h 11.741271 11.741271 z m -20.192684,4.50082 3.90685,3.545404 -0.07597,0.07367 c -0.04144,0.03914 -1.804932,1.639174 -3.920663,3.554613 -2.115731,1.915438 -3.888433,3.524683 -3.941384,3.577634 l -0.09899,0.09209 V 44.815041 37.52164 l 0.110506,0.101297 c 0.06216,0.05295 1.869395,1.694426 4.019659,3.642096 z m 21.166518,7.182895 -0.0069,3.651305 -3.936779,-3.570727 c -2.164078,-1.961483 -3.971313,-3.602959 -4.015054,-3.644399 l -0.07597,-0.07827 4.012752,-3.639794 4.015054,-3.642096 0.0069,3.637492 c 0.0023,2.00062 0.0023,5.278967 0,7.286494 z m -15.811578,-2.32293 c 0.488069,0.439723 0.948511,0.835703 1.197149,1.026786 1.231683,0.955417 1.996016,1.116572 2.97906,0.623899 0.531811,-0.264754 1.123479,-0.725196 2.256166,-1.751982 l 0.43742,-0.393678 0.09209,0.08979 c 0.05295,0.04835 1.487228,1.351398 3.190863,2.893878 1.703636,1.544783 3.467129,3.142517 3.920664,3.554613 l 0.826493,0.748218 -5.859124,0.0069 c -3.223094,0.0023 -8.504364,0.0023 -11.736667,0 l -5.877542,-0.0069 4.015054,-3.642096 4.017357,-3.644399 0.08058,0.07827 c 0.04374,0.04144 0.250941,0.230221 0.460442,0.4167 z"
         id="path4"
         style="fill:#ff0000;stroke:#ff0000;stroke-width:0.00230221" />
      <g
         id="g5883"
         transform="matrix(0.2188288,0,0,0.2188288,10.237324,-36.525199)">
        <g
           transform="matrix(-0.6850293,0,0,0.6850293,-5.127011,-30.388146)"
           id="g4862">
          <g
             transform="translate(-6.4285711,-72.642857)"
             id="g4820">
            <g
               id="g4822">
              <path
                 style="fill:#ffffff;stroke:none"
                 d="m -190.89286,425.75504 45,30.53571 0.53572,0.35715 8.92857,-3.39286 18.92857,-8.75 17.14286,-8.75 18.571426,-10 27.678571,-16.60714 7.857143,-4.82143 -43.571429,-21.96429 -36.785711,19.46429 -17.67857,8.39285 -24.28572,8.75 z"
                 id="path4824"
                 inkscape:connector-curvature="0"
                 transform="translate(6.4285711,84.642857)" />
              <path
                 style="fill:#005500;stroke:none"
                 d="m -83.203841,466.29464 c -55.310089,31.49436 -76.664149,35.62903 -103.590799,44.23291 l 47.49879,31.83852 c 35.8553,-14.36254 69.040859,-32.88026 101.072639,-53.21721 z m -0.31477,1.63947 41.70702,21.18196 c -29.70502,18.85968 -63.729829,37.8978 -96.980629,51.21706 l -44.03632,-29.51047 c 24.97073,-7.97891 48.01751,-13.68191 99.309929,-42.88855 z"
                 id="path4826"
                 inkscape:connector-curvature="0" />
            </g>
          </g>
          <g
             id="g4812"
             transform="translate(-6.4285711,-76.642857)">
            <g
               id="g4814">
              <path
                 transform="translate(6.4285711,84.642857)"
                 inkscape:connector-curvature="0"
                 id="path4816"
                 d="m -190.89286,425.75504 45,30.53571 0.53572,0.35715 8.92857,-3.39286 18.92857,-8.75 17.14286,-8.75 18.571426,-10 27.678571,-16.60714 7.857143,-4.82143 -43.571429,-21.96429 -36.785711,19.46429 -17.67857,8.39285 -24.28572,8.75 z"
                 style="fill:#ffffff;stroke:none" />
              <path
                 inkscape:connector-curvature="0"
                 id="path4818"
                 d="m -83.203841,466.29464 c -55.310089,31.49436 -76.664149,35.62903 -103.590799,44.23291 l 47.49879,31.83852 c 35.8553,-14.36254 69.040859,-32.88026 101.072639,-53.21721 z m -0.31477,1.63947 41.70702,21.18196 c -29.70502,18.85968 -63.729829,37.8978 -96.980629,51.21706 l -44.03632,-29.51047 c 24.97073,-7.97891 48.01751,-13.68191 99.309929,-42.88855 z"
                 style="fill:#005500;stroke:none" />
            </g>
          </g>
          <g
             transform="translate(-6.4285711,-80.642857)"
             id="g4804">
            <g
               id="g4806">
              <path
                 style="fill:#ffffff;stroke:none"
                 d="m -190.89286,425.75504 45,30.53571 0.53572,0.35715 8.92857,-3.39286 18.92857,-8.75 17.14286,-8.75 18.571426,-10 27.678571,-16.60714 7.857143,-4.82143 -43.571429,-21.96429 -36.785711,19.46429 -17.67857,8.39285 -24.28572,8.75 z"
                 id="path4808"
                 inkscape:connector-curvature="0"
                 transform="translate(6.4285711,84.642857)" />
              <path
                 style="fill:#005500;stroke:none"
                 d="m -83.203841,466.29464 c -55.310089,31.49436 -76.664149,35.62903 -103.590799,44.23291 l 47.49879,31.83852 c 35.8553,-14.36254 69.040859,-32.88026 101.072639,-53.21721 z m -0.31477,1.63947 41.70702,21.18196 c -29.70502,18.85968 -63.729829,37.8978 -96.980629,51.21706 l -44.03632,-29.51047 c 24.97073,-7.97891 48.01751,-13.68191 99.309929,-42.88855 z"
                 id="path4810"
                 inkscape:connector-curvature="0" />
            </g>
          </g>
          <g
             id="g4763"
             transform="translate(-6.4285711,-84.642857)">
            <g
               id="g4800">
              <path
                 transform="translate(6.4285711,84.642857)"
                 inkscape:connector-curvature="0"
                 id="path4797"
                 d="m -190.89286,425.75504 45,30.53571 0.53572,0.35715 8.92857,-3.39286 18.92857,-8.75 17.14286,-8.75 18.571426,-10 27.678571,-16.60714 7.857143,-4.82143 -43.571429,-21.96429 -36.785711,19.46429 -17.67857,8.39285 -24.28572,8.75 z"
                 style="fill:#ffffff;stroke:none" />
              <path
                 inkscape:connector-curvature="0"
                 id="path4765"
                 d="m -83.203841,466.29464 c -55.310089,31.49436 -76.664149,35.62903 -103.590799,44.23291 l 47.49879,31.83852 c 35.8553,-14.36254 69.040859,-32.88026 101.072639,-53.21721 z m -0.31477,1.63947 41.70702,21.18196 c -29.70502,18.85968 -63.729829,37.8978 -96.980629,51.21706 l -44.03632,-29.51047 c 24.97073,-7.97891 48.01751,-13.68191 99.309929,-42.88855 z"
                 style="fill:#005500;stroke:none" />
            </g>
          </g>
          <g
             id="g4828"
             transform="translate(-6.4285711,-88.64286)">
            <g
               id="g4830">
              <path
                 transform="translate(6.4285711,84.642857)"
                 inkscape:connector-curvature="0"
                 id="path4832"
                 d="m -190.89286,425.75504 45,30.53571 0.53572,0.35715 8.92857,-3.39286 18.92857,-8.75 17.14286,-8.75 18.571426,-10 27.678571,-16.60714 7.857143,-4.82143 -43.571429,-21.96429 -36.785711,19.46429 -17.67857,8.39285 -24.28572,8.75 z"
                 style="fill:#ffffff;stroke:none" />
              <path
                 inkscape:connector-curvature="0"
                 id="path4834"
                 d="m -83.203841,466.29464 c -55.310089,31.49436 -76.664149,35.62903 -103.590799,44.23291 l 47.49879,31.83852 c 35.8553,-14.36254 69.040859,-32.88026 101.072639,-53.21721 z m -0.31477,1.63947 41.70702,21.18196 c -29.70502,18.85968 -63.729829,37.8978 -96.980629,51.21706 l -44.03632,-29.51047 c 24.97073,-7.97891 48.01751,-13.68191 99.309929,-42.88855 z"
                 style="fill:#005500;stroke:none" />
            </g>
          </g>
          <g
             transform="translate(-6.4285711,-92.64286)"
             id="g4836">
            <g
               id="g4838">
              <path
                 style="fill:#ffffff;stroke:none"
                 d="m -190.89286,425.75504 45,30.53571 0.53572,0.35715 8.92857,-3.39286 18.92857,-8.75 17.14286,-8.75 18.571426,-10 27.678571,-16.60714 7.857143,-4.82143 -43.571429,-21.96429 -36.785711,19.46429 -17.67857,8.39285 -24.28572,8.75 z"
                 id="path4840"
                 inkscape:connector-curvature="0"
                 transform="translate(6.4285711,84.642857)" />
              <path
                 style="fill:#005500;stroke:none"
                 d="m -83.203841,466.29464 c -55.310089,31.49436 -76.664149,35.62903 -103.590799,44.23291 l 47.49879,31.83852 c 35.8553,-14.36254 69.040859,-32.88026 101.072639,-53.21721 z m -0.31477,1.63947 41.70702,21.18196 c -29.70502,18.85968 -63.729829,37.8978 -96.980629,51.21706 l -44.03632,-29.51047 c 24.97073,-7.97891 48.01751,-13.68191 99.309929,-42.88855 z"
                 id="path4842"
                 inkscape:connector-curvature="0" />
            </g>
          </g>
          <g
             id="g4844"
             transform="translate(-6.4285711,-96.64286)">
            <g
               id="g4846">
              <path
                 transform="translate(6.4285711,84.642857)"
                 inkscape:connector-curvature="0"
                 id="path4848"
                 d="m -190.89286,425.75504 45,30.53571 0.53572,0.35715 8.92857,-3.39286 18.92857,-8.75 17.14286,-8.75 18.571426,-10 27.678571,-16.60714 7.857143,-4.82143 -43.571429,-21.96429 -36.785711,19.46429 -17.67857,8.39285 -24.28572,8.75 z"
                 style="fill:#ffffff;stroke:none" />
              <path
                 inkscape:connector-curvature="0"
                 id="path4850"
                 d="m -83.203841,466.29464 c -55.310089,31.49436 -76.664149,35.62903 -103.590799,44.23291 l 47.49879,31.83852 c 35.8553,-14.36254 69.040859,-32.88026 101.072639,-53.21721 z m -0.31477,1.63947 41.70702,21.18196 c -29.70502,18.85968 -63.729829,37.8978 -96.980629,51.21706 l -44.03632,-29.51047 c 24.97073,-7.97891 48.01751,-13.68191 99.309929,-42.88855 z"
                 style="fill:#005500;stroke:none" />
            </g>
          </g>
          <g
             transform="translate(-6.4285711,-100.64286)"
             id="g4852">
            <g
               id="g4854">
              <path
                 style="fill:#ffffff;stroke:none"
                 d="m -190.89286,425.75504 45,30.53571 0.53572,0.35715 8.92857,-3.39286 18.92857,-8.75 17.14286,-8.75 18.571426,-10 27.678571,-16.60714 7.857143,-4.82143 -43.571429,-21.96429 -36.785711,19.46429 -17.67857,8.39285 -24.28572,8.75 z"
                 id="path4856"
                 inkscape:connector-curvature="0"
                 transform="translate(6.4285711,84.642857)" />
              <path
                 style="fill:#005500;stroke:none"
                 d="m -83.203841,466.29464 c -55.310089,31.49436 -76.664149,35.62903 -103.590799,44.23291 l 47.49879,31.83852 c 35.8553,-14.36254 69.040859,-32.88026 101.072639,-53.21721 z m -0.31477,1.63947 41.70702,21.18196 c -29.70502,18.85968 -63.729829,37.8978 -96.980629,51.21706 l -44.03632,-29.51047 c 24.97073,-7.97891 48.01751,-13.68191 99.309929,-42.88855 z"
                 id="path4858"
                 inkscape:connector-curvature="0" />
            </g>
          </g>
          <g
             id="g4786"
             transform="translate(0,-14)">
            <path
               inkscape:connector-curvature="0"
               id="path4774"
               d="m -180.71429,422.00504 c 0,0 5.71429,3.92857 6.42858,7.14286 0.71428,3.21428 23.92857,16.78571 23.92857,16.78571 h 11.42857 l 7.85714,-1.78571 19.64286,-9.28572 15.714284,-6.78571 18.928572,-10.35715 17.857142,-10.71428 V 395.57647 L -84.642857,383.43361 -97.5,385.21932 l -11.78571,7.14286 -28.92858,12.85714 -37.5,13.21429 z"
               style="fill:#ffffff;stroke:none" />
            <g
               id="g4758"
               style="fill:#165016">
              <path
                 style="fill:#165016;stroke:none"
                 d="M -89.65625,378.78125 C -144.56747,408.797 -165.76753,412.73755 -192.5,420.9375 l 47.15625,30.34375 C -109.74702,437.59301 -76.800778,419.94466 -45,400.5625 Z M -78.75,387.3125 -63.875,395 c -0.955399,1.91634 -1.5,4.03707 -1.5,6.28125 0,2.55026 0.692363,4.95727 1.90625,7.0625 -21.463826,13.90825 -45.38187,24.75337 -69.875,34.875 -2.7124,-2.49005 -6.6914,-4.0625 -11.125,-4.0625 -3.62367,0 -6.93009,1.06679 -9.5,2.8125 l -17.4375,-11.3125 c 1.12739,-1.77781 1.75,-3.80691 1.75,-5.96875 0,-2.267 -0.7069,-4.37955 -1.9375,-6.21875 19.45498,-5.13454 54.12354,-20.98019 72.03125,-29.9375 2.577326,1.27086 5.824082,2.03125 9.375,2.03125 4.567016,0 8.656963,-1.26067 11.4375,-3.25 z"
                 id="path4696"
                 inkscape:connector-curvature="0" />
              <path
                 style="color:#000000;display:inline;overflow:visible;visibility:visible;fill:#165016;stroke:none;stroke-width:0.0791407;marker:none;enable-background:accumulate"
                 d="m -146.36813,410.11743 c -1.58551,7.11414 1.20048,14.03422 8.40277,18.38878 7.20233,4.35457 17.17174,5.14646 26.66229,2.81172 z"
                 id="path4733"
                 inkscape:connector-curvature="0"
                 sodipodi:nodetypes="cscc" />
              <path
                 sodipodi:nodetypes="cscc"
                 inkscape:connector-curvature="0"
                 id="path4756"
                 d="m -82.423075,417.96506 c 1.506079,-6.55188 -1.140337,-12.92505 -7.981804,-16.93546 -6.841505,-4.01042 -16.311461,-4.73972 -25.326551,-2.5895 z"
                 style="color:#000000;display:inline;overflow:visible;visibility:visible;fill:#165016;stroke:none;stroke-width:0.0740221;marker:none;enable-background:accumulate" />
            </g>
          </g>
          <path
             style="fill:#005500;stroke:none"
             d="m -145.17857,393.79076 40.71428,24.99999 -0.89285,31.78571 22.142854,-11.96428 -0.357143,-31.42857 -39.285711,-23.39286 z"
             id="path4860"
             inkscape:connector-curvature="0"
             sodipodi:nodetypes="ccccccc" />
        </g>
        <path
           sodipodi:nodetypes="ccccccccccccccccccccccccccccccccccc"
           inkscape:connector-curvature="0"
           id="path4903"
           d="m 124.71207,249.10578 -0.23122,1.70699 -1.48842,1.36552 1.95194,1.21528 -1.23738,1.56495 1.34935,1.01562 -0.99378,1.6914 1.43177,1.58741 -1.81444,1.47424 1.90744,1.12184 -2.3305,1.56843 2.18004,0.94732 -1.54601,1.37369 1.32469,1.09896 -1.65211,1.83202 2.00491,1.23186 -29.358395,20.06157 0.931907,-1.91848 11.431978,-8.70897 -9.105392,4.47674 14.147692,-10.46951 -12.56082,6.85803 14.30029,-10.96112 -12.23979,6.96753 13.36763,-10.33525 -11.80335,6.49654 13.05352,-10.19877 -11.68821,6.35939 11.83743,-9.33855 -11.31357,6.14064 12.80839,-9.61548 -11.30957,5.91949 12.43741,-9.34785 -10.47263,6.23768 z"
           style="fill:#165016;stroke:none" />
      </g>
      <g
         id="g6"
         transform="matrix(-0.08850067,0,0,-0.06640596,53.274747,33.359689)"
         style="fill:#000000;stroke:#000000">
        <g
           id="g4"
           style="fill:#000000;stroke:#000000">
          <path
             style="fill:#000000;stroke:#000000"
             d="m 127.542,162.341 c -44.74,0 -82.176,-46.971 -87.874,-109.719 H 7.041 L 59.657,0 112.273,52.622 H 79.807 c 4.744,50.014 31.445,91.472 65.636,101.419 l 9.857,2.864 -9.857,2.858 c -5.866,1.712 -11.887,2.578 -17.901,2.578 z M 21.451,46.655 h 23.742 l 0.203,2.757 c 4.589,60.981 39.9,106.962 82.146,106.962 2.106,0 4.207,-0.119 6.307,-0.352 C 101.067,140.753 77.349,99.689 73.584,49.859 l -0.233,-3.21 H 97.875 L 59.669,8.431 Z"
             id="path2" />
        </g>
      </g>
      <text
         xml:space="preserve"
         style="font-size:4.9389px;line-height:125%;font-family:'Noto Serif';-inkscape-font-specification:'Noto Serif';letter-spacing:0px;word-spacing:0px;fill:#000000;stroke:#000000;stroke-width:0.264583px;stroke-linecap:butt;stroke-linejoin:miter;stroke-opacity:1"
         x="48.41074"
         y="20.785707"
         id="text1695"><tspan
           sodipodi:role="line"
           id="tspan1693"
           x="48.41074"
           y="20.785707"
           style="fill:#000000;stroke:#000000;stroke-width:0.264583px">P(G|A)</tspan></text>
    </g>
    <path
       d="M 104.64532,44.981469 V 54.31693 H 90.636368 76.62742 V 44.981469 35.646007 H 90.636368 104.64532 Z M 78.964163,36.932943 c 0.03914,0.03684 2.30221,2.088104 5.030329,4.56298 2.728119,2.472573 5.028027,4.558376 5.110906,4.632046 0.386772,0.354541 0.840307,0.633108 1.174127,0.722894 0.221013,0.05756 0.543322,0.05065 0.75973,-0.01381 0.331518,-0.1013 0.690663,-0.317708 1.047505,-0.633111 0.273963,-0.23943 10.07677,-9.130565 10.18728,-9.236466 l 0.1036,-0.101297 H 90.636368 78.895097 Z m 20.192684,4.50082 -3.90685,3.545404 0.07597,0.07367 c 0.04144,0.03914 1.804932,1.639174 3.920663,3.554613 2.11573,1.915438 3.88843,3.524683 3.94138,3.577634 l 0.099,0.09209 v -7.293401 -7.293401 l -0.1105,0.101297 c -0.0622,0.05295 -1.8694,1.694426 -4.019661,3.642096 z m -21.166518,7.182895 0.0069,3.651305 3.936779,-3.570727 c 2.164078,-1.961483 3.971313,-3.602959 4.015054,-3.644399 l 0.07597,-0.07827 -4.012752,-3.639794 -4.015054,-3.642096 -0.0069,3.637492 c -0.0023,2.00062 -0.0023,5.278967 0,7.286494 z m 15.811578,-2.32293 c -0.488069,0.439723 -0.948511,0.835703 -1.197149,1.026786 -1.231683,0.955417 -1.996016,1.116572 -2.97906,0.623899 -0.531811,-0.264754 -1.123479,-0.725196 -2.256166,-1.751982 l -0.43742,-0.393678 -0.09209,0.08979 c -0.05295,0.04835 -1.487228,1.351398 -3.190863,2.893878 -1.703636,1.544783 -3.467129,3.142517 -3.920664,3.554613 l -0.826493,0.748218 5.859124,0.0069 c 3.223094,0.0023 8.504364,0.0023 11.736667,0 l 5.877547,-0.0069 -4.015059,-3.642096 -4.017357,-3.644399 -0.08058,0.07827 c -0.04374,0.04144 -0.250941,0.230221 -0.460442,0.4167 z"
       id="path2265"
       style="fill:#0000ff;stroke:#0000ff;stroke-width:0.00230221" />
    <g
       id="g2349"
       transform="matrix(-0.2188288,0,0,0.2188288,128.73743,-36.356467)">
      <g
         transform="matrix(-0.6850293,0,0,0.6850293,-5.127011,-30.388146)"
         id="g2345">
        <g
           transform="translate(-6.4285711,-72.642857)"
           id="g2273">
          <g
             id="g2271">
            <path
               style="fill:#ffffff;stroke:none"
               d="m -190.89286,425.75504 45,30.53571 0.53572,0.35715 8.92857,-3.39286 18.92857,-8.75 17.14286,-8.75 18.571426,-10 27.678571,-16.60714 7.857143,-4.82143 -43.571429,-21.96429 -36.785711,19.46429 -17.67857,8.39285 -24.28572,8.75 z"
               id="path2267"
               inkscape:connector-curvature="0"
               transform="translate(6.4285711,84.642857)" />
            <path
               style="fill:#005500;stroke:none"
               d="m -83.203841,466.29464 c -55.310089,31.49436 -76.664149,35.62903 -103.590799,44.23291 l 47.49879,31.83852 c 35.8553,-14.36254 69.040859,-32.88026 101.072639,-53.21721 z m -0.31477,1.63947 41.70702,21.18196 c -29.70502,18.85968 -63.729829,37.8978 -96.980629,51.21706 l -44.03632,-29.51047 c 24.97073,-7.97891 48.01751,-13.68191 99.309929,-42.88855 z"
               id="path2269"
               inkscape:connector-curvature="0" />
          </g>
        </g>
        <g
           id="g2281"
           transform="translate(-6.4285711,-76.642857)">
          <g
             id="g2279">
            <path
               transform="translate(6.4285711,84.642857)"
               inkscape:connector-curvature="0"
               id="path2275"
               d="m -190.89286,425.75504 45,30.53571 0.53572,0.35715 8.92857,-3.39286 18.92857,-8.75 17.14286,-8.75 18.571426,-10 27.678571,-16.60714 7.857143,-4.82143 -43.571429,-21.96429 -36.785711,19.46429 -17.67857,8.39285 -24.28572,8.75 z"
               style="fill:#ffffff;stroke:none" />
            <path
               inkscape:connector-curvature="0"
               id="path2277"
               d="m -83.203841,466.29464 c -55.310089,31.49436 -76.664149,35.62903 -103.590799,44.23291 l 47.49879,31.83852 c 35.8553,-14.36254 69.040859,-32.88026 101.072639,-53.21721 z m -0.31477,1.63947 41.70702,21.18196 c -29.70502,18.85968 -63.729829,37.8978 -96.980629,51.21706 l -44.03632,-29.51047 c 24.97073,-7.97891 48.01751,-13.68191 99.309929,-42.88855 z"
               style="fill:#005500;stroke:none" />
          </g>
        </g>
        <g
           transform="translate(-6.4285711,-80.642857)"
           id="g2289">
          <g
             id="g2287">
            <path
               style="fill:#ffffff;stroke:none"
               d="m -190.89286,425.75504 45,30.53571 0.53572,0.35715 8.92857,-3.39286 18.92857,-8.75 17.14286,-8.75 18.571426,-10 27.678571,-16.60714 7.857143,-4.82143 -43.571429,-21.96429 -36.785711,19.46429 -17.67857,8.39285 -24.28572,8.75 z"
               id="path2283"
               inkscape:connector-curvature="0"
               transform="translate(6.4285711,84.642857)" />
            <path
               style="fill:#005500;stroke:none"
               d="m -83.203841,466.29464 c -55.310089,31.49436 -76.664149,35.62903 -103.590799,44.23291 l 47.49879,31.83852 c 35.8553,-14.36254 69.040859,-32.88026 101.072639,-53.21721 z m -0.31477,1.63947 41.70702,21.18196 c -29.70502,18.85968 -63.729829,37.8978 -96.980629,51.21706 l -44.03632,-29.51047 c 24.97073,-7.97891 48.01751,-13.68191 99.309929,-42.88855 z"
               id="path2285"
               inkscape:connector-curvature="0" />
          </g>
        </g>
        <g
           id="g2297"
           transform="translate(-6.4285711,-84.642857)">
          <g
             id="g2295">
            <path
               transform="translate(6.4285711,84.642857)"
               inkscape:connector-curvature="0"
               id="path2291"
               d="m -190.89286,425.75504 45,30.53571 0.53572,0.35715 8.92857,-3.39286 18.92857,-8.75 17.14286,-8.75 18.571426,-10 27.678571,-16.60714 7.857143,-4.82143 -43.571429,-21.96429 -36.785711,19.46429 -17.67857,8.39285 -24.28572,8.75 z"
               style="fill:#ffffff;stroke:none" />
            <path
               inkscape:connector-curvature="0"
               id="path2293"
               d="m -83.203841,466.29464 c -55.310089,31.49436 -76.664149,35.62903 -103.590799,44.23291 l 47.49879,31.83852 c 35.8553,-14.36254 69.040859,-32.88026 101.072639,-53.21721 z m -0.31477,1.63947 41.70702,21.18196 c -29.70502,18.85968 -63.729829,37.8978 -96.980629,51.21706 l -44.03632,-29.51047 c 24.97073,-7.97891 48.01751,-13.68191 99.309929,-42.88855 z"
               style="fill:#005500;stroke:none" />
          </g>
        </g>
        <g
           id="g2305"
           transform="translate(-6.4285711,-88.64286)">
          <g
             id="g2303">
            <path
               transform="translate(6.4285711,84.642857)"
               inkscape:connector-curvature="0"
               id="path2299"
               d="m -190.89286,425.75504 45,30.53571 0.53572,0.35715 8.92857,-3.39286 18.92857,-8.75 17.14286,-8.75 18.571426,-10 27.678571,-16.60714 7.857143,-4.82143 -43.571429,-21.96429 -36.785711,19.46429 -17.67857,8.39285 -24.28572,8.75 z"
               style="fill:#ffffff;stroke:none" />
            <path
               inkscape:connector-curvature="0"
               id="path2301"
               d="m -83.203841,466.29464 c -55.310089,31.49436 -76.664149,35.62903 -103.590799,44.23291 l 47.49879,31.83852 c 35.8553,-14.36254 69.040859,-32.88026 101.072639,-53.21721 z m -0.31477,1.63947 41.70702,21.18196 c -29.70502,18.85968 -63.729829,37.8978 -96.980629,51.21706 l -44.03632,-29.51047 c 24.97073,-7.97891 48.01751,-13.68191 99.309929,-42.88855 z"
               style="fill:#005500;stroke:none" />
          </g>
        </g>
        <g
           transform="translate(-6.4285711,-92.64286)"
           id="g2313">
          <g
             id="g2311">
            <path
               style="fill:#ffffff;stroke:none"
               d="m -190.89286,425.75504 45,30.53571 0.53572,0.35715 8.92857,-3.39286 18.92857,-8.75 17.14286,-8.75 18.571426,-10 27.678571,-16.60714 7.857143,-4.82143 -43.571429,-21.96429 -36.785711,19.46429 -17.67857,8.39285 -24.28572,8.75 z"
               id="path2307"
               inkscape:connector-curvature="0"
               transform="translate(6.4285711,84.642857)" />
            <path
               style="fill:#005500;stroke:none"
               d="m -83.203841,466.29464 c -55.310089,31.49436 -76.664149,35.62903 -103.590799,44.23291 l 47.49879,31.83852 c 35.8553,-14.36254 69.040859,-32.88026 101.072639,-53.21721 z m -0.31477,1.63947 41.70702,21.18196 c -29.70502,18.85968 -63.729829,37.8978 -96.980629,51.21706 l -44.03632,-29.51047 c 24.97073,-7.97891 48.01751,-13.68191 99.309929,-42.88855 z"
               id="path2309"
               inkscape:connector-curvature="0" />
          </g>
        </g>
        <g
           id="g2321"
           transform="translate(-6.4285711,-96.64286)">
          <g
             id="g2319">
            <path
               transform="translate(6.4285711,84.642857)"
               inkscape:connector-curvature="0"
               id="path2315"
               d="m -190.89286,425.75504 45,30.53571 0.53572,0.35715 8.92857,-3.39286 18.92857,-8.75 17.14286,-8.75 18.571426,-10 27.678571,-16.60714 7.857143,-4.82143 -43.571429,-21.96429 -36.785711,19.46429 -17.67857,8.39285 -24.28572,8.75 z"
               style="fill:#ffffff;stroke:none" />
            <path
               inkscape:connector-curvature="0"
               id="path2317"
               d="m -83.203841,466.29464 c -55.310089,31.49436 -76.664149,35.62903 -103.590799,44.23291 l 47.49879,31.83852 c 35.8553,-14.36254 69.040859,-32.88026 101.072639,-53.21721 z m -0.31477,1.63947 41.70702,21.18196 c -29.70502,18.85968 -63.729829,37.8978 -96.980629,51.21706 l -44.03632,-29.51047 c 24.97073,-7.97891 48.01751,-13.68191 99.309929,-42.88855 z"
               style="fill:#005500;stroke:none" />
          </g>
        </g>
        <g
           transform="translate(-6.4285711,-100.64286)"
           id="g2329">
          <g
             id="g2327">
            <path
               style="fill:#ffffff;stroke:none"
               d="m -190.89286,425.75504 45,30.53571 0.53572,0.35715 8.92857,-3.39286 18.92857,-8.75 17.14286,-8.75 18.571426,-10 27.678571,-16.60714 7.857143,-4.82143 -43.571429,-21.96429 -36.785711,19.46429 -17.67857,8.39285 -24.28572,8.75 z"
               id="path2323"
               inkscape:connector-curvature="0"
               transform="translate(6.4285711,84.642857)" />
            <path
               style="fill:#005500;stroke:none"
               d="m -83.203841,466.29464 c -55.310089,31.49436 -76.664149,35.62903 -103.590799,44.23291 l 47.49879,31.83852 c 35.8553,-14.36254 69.040859,-32.88026 101.072639,-53.21721 z m -0.31477,1.63947 41.70702,21.18196 c -29.70502,18.85968 -63.729829,37.8978 -96.980629,51.21706 l -44.03632,-29.51047 c 24.97073,-7.97891 48.01751,-13.68191 99.309929,-42.88855 z"
               id="path2325"
               inkscape:connector-curvature="0" />
          </g>
        </g>
        <g
           id="g2341"
           transform="translate(0,-14)">
          <path
             inkscape:connector-curvature="0"
             id="path2331"
             d="m -180.71429,422.00504 c 0,0 5.71429,3.92857 6.42858,7.14286 0.71428,3.21428 23.92857,16.78571 23.92857,16.78571 h 11.42857 l 7.85714,-1.78571 19.64286,-9.28572 15.714284,-6.78571 18.928572,-10.35715 17.857142,-10.71428 V 395.57647 L -84.642857,383.43361 -97.5,385.21932 l -11.78571,7.14286 -28.92858,12.85714 -37.5,13.21429 z"
             style="fill:#ffffff;stroke:none" />
          <g
             id="g2339"
             style="fill:#165016">
            <path
               style="fill:#165016;stroke:none"
               d="M -89.65625,378.78125 C -144.56747,408.797 -165.76753,412.73755 -192.5,420.9375 l 47.15625,30.34375 C -109.74702,437.59301 -76.800778,419.94466 -45,400.5625 Z M -78.75,387.3125 -63.875,395 c -0.955399,1.91634 -1.5,4.03707 -1.5,6.28125 0,2.55026 0.692363,4.95727 1.90625,7.0625 -21.463826,13.90825 -45.38187,24.75337 -69.875,34.875 -2.7124,-2.49005 -6.6914,-4.0625 -11.125,-4.0625 -3.62367,0 -6.93009,1.06679 -9.5,2.8125 l -17.4375,-11.3125 c 1.12739,-1.77781 1.75,-3.80691 1.75,-5.96875 0,-2.267 -0.7069,-4.37955 -1.9375,-6.21875 19.45498,-5.13454 54.12354,-20.98019 72.03125,-29.9375 2.577326,1.27086 5.824082,2.03125 9.375,2.03125 4.567016,0 8.656963,-1.26067 11.4375,-3.25 z"
               id="path2333"
               inkscape:connector-curvature="0" />
            <path
               style="color:#000000;display:inline;overflow:visible;visibility:visible;fill:#165016;stroke:none;stroke-width:0.0791407;marker:none;enable-background:accumulate"
               d="m -146.36813,410.11743 c -1.58551,7.11414 1.20048,14.03422 8.40277,18.38878 7.20233,4.35457 17.17174,5.14646 26.66229,2.81172 z"
               id="path2335"
               inkscape:connector-curvature="0"
               sodipodi:nodetypes="cscc" />
            <path
               sodipodi:nodetypes="cscc"
               inkscape:connector-curvature="0"
               id="path2337"
               d="m -82.423075,417.96506 c 1.506079,-6.55188 -1.140337,-12.92505 -7.981804,-16.93546 -6.841505,-4.01042 -16.311461,-4.73972 -25.326551,-2.5895 z"
               style="color:#000000;display:inline;overflow:visible;visibility:visible;fill:#165016;stroke:none;stroke-width:0.0740221;marker:none;enable-background:accumulate" />
          </g>
        </g>
        <path
           style="fill:#005500;stroke:none"
           d="m -145.17857,393.79076 40.71428,24.99999 -0.89285,31.78571 22.142854,-11.96428 -0.357143,-31.42857 -39.285711,-23.39286 z"
           id="path2343"
           inkscape:connector-curvature="0"
           sodipodi:nodetypes="ccccccc" />
      </g>
      <path
         sodipodi:nodetypes="ccccccccccccccccccccccccccccccccccc"
         inkscape:connector-curvature="0"
         id="path2347"
         d="m 124.71207,249.10578 -0.23122,1.70699 -1.48842,1.36552 1.95194,1.21528 -1.23738,1.56495 1.34935,1.01562 -0.99378,1.6914 1.43177,1.58741 -1.81444,1.47424 1.90744,1.12184 -2.3305,1.56843 2.18004,0.94732 -1.54601,1.37369 1.32469,1.09896 -1.65211,1.83202 2.00491,1.23186 -29.358395,20.06157 0.931907,-1.91848 11.431978,-8.70897 -9.105392,4.47674 14.147692,-10.46951 -12.56082,6.85803 14.30029,-10.96112 -12.23979,6.96753 13.36763,-10.33525 -11.80335,6.49654 13.05352,-10.19877 -11.68821,6.35939 11.83743,-9.33855 -11.31357,6.14064 12.80839,-9.61548 -11.30957,5.91949 12.43741,-9.34785 -10.47263,6.23768 z"
         style="fill:#165016;stroke:none" />
    </g>
    <g
       id="g2355"
       transform="matrix(0.08850067,0,0,-0.06640596,85.700003,33.528421)"
       style="fill:#000000;stroke:#000000">
      <g
         id="g2353"
         style="fill:#000000;stroke:#000000">
        <path
           style="fill:#000000;stroke:#000000"
           d="m 127.542,162.341 c -44.74,0 -82.176,-46.971 -87.874,-109.719 H 7.041 L 59.657,0 112.273,52.622 H 79.807 c 4.744,50.014 31.445,91.472 65.636,101.419 l 9.857,2.864 -9.857,2.858 c -5.866,1.712 -11.887,2.578 -17.901,2.578 z M 21.451,46.655 h 23.742 l 0.203,2.757 c 4.589,60.981 39.9,106.962 82.146,106.962 2.106,0 4.207,-0.119 6.307,-0.352 C 101.067,140.753 77.349,99.689 73.584,49.859 l -0.233,-3.21 H 97.875 L 59.669,8.431 Z"
           id="path2351" />
      </g>
    </g>
    <text
       xml:space="preserve"
       style="font-size:4.9389px;line-height:125%;font-family:'Noto Serif';-inkscape-font-specification:'Noto Serif';letter-spacing:0px;word-spacing:0px;fill:#000000;stroke:#000000;stroke-width:0.264583px;stroke-linecap:butt;stroke-linejoin:miter;stroke-opacity:1"
       x="74.487923"
       y="20.954439"
       id="text2359"><tspan
         sodipodi:role="line"
         id="tspan2357"
         x="74.487923"
         y="20.954439"
         style="fill:#000000;stroke:#000000;stroke-width:0.264583px">P(G|B)</tspan></text>
  </g>
</svg>
